<svg height="512" viewBox="0 0 64 64" width="512" xmlns="http://www.w3.org/2000/svg"><g id="flat"><path d="m3 11h12v12h-12z" fill="#ffd782"/><path d="m10 14h2v2h-2z" fill="#394d5c"/><path d="m15 11h-12v-1.769a2.231 2.231 0 0 1 2.231-2.231l10.769-1.038z" fill="#394d5c"/><path d="m3 23h12v12h-12z" fill="#195c85"/><path d="m26 11h12v12h-12z" fill="#ffd782"/><g fill="#394d5c"><path d="m33 14h2v2h-2z"/><path d="m29 14h2v2h-2z"/><path d="m38 11h-12v-1.637a2.369 2.369 0 0 1 2.363-2.363h7.637a2 2 0 0 1 2 2z"/><path d="m27 23h10v12h-10z"/></g><path d="m11 31v-4a2 2 0 0 0 -2-2 2 2 0 0 0 -2 2v8h10a2 2 0 0 0 2-2 2 2 0 0 0 -2-2z" fill="#0f5172"/><path d="m49 12h12v12h-12z" fill="#ffd782"/><path d="m52 15h2v2h-2z" fill="#394d5c"/><path d="m49 8h12a0 0 0 0 1 0 0v1.019a2.981 2.981 0 0 1 -2.981 2.981h-6.038a2.981 2.981 0 0 1 -2.981-2.981v-1.019a0 0 0 0 1 0 0z" fill="#394d5c" transform="matrix(-1 0 0 -1 110 20)"/><path d="m25 23h2a0 0 0 0 1 0 0v12a0 0 0 0 1 0 0h-4a0 0 0 0 1 0 0v-10a2 2 0 0 1 2-2z" fill="#143441"/><path d="m37 23h4a0 0 0 0 1 0 0v9a0 0 0 0 1 0 0h-2a2 2 0 0 1 -2-2v-7a0 0 0 0 1 0 0z" fill="#143441" transform="matrix(-1 0 0 -1 78 55)"/><path d="m32 21.962a1 1 0 0 1 -.707-.293l-2-2a1 1 0 0 1 1.414-1.414l1.293 1.293 1.293-1.293a1 1 0 0 1 1.414 1.414l-2 2a1 1 0 0 1 -.707.293z" fill="#394d5c"/><path d="m27 31h2a2 2 0 0 1 2 2 2 2 0 0 1 -2 2h-2a0 0 0 0 1 0 0v-4a0 0 0 0 1 0 0z" fill="#ffd782"/><path d="m53 4h4v4h-4z" fill="#e6f1fd"/><path d="m53 4-4-1v5h4z" fill="#d0e5f7"/><path d="m57 4 4-1v5h-4z" fill="#d0e5f7"/><path d="m34 27h-1v-1h-2v1h-1v2h1v3h2v-3h1z" fill="#f4f4e6"/><path d="m3 11h4v6h-4z" fill="#143441"/><path d="m15 23h-5l5 6.962z" fill="#e6f1fd"/><path d="m49 24v12l-2 21h14v-21-12z" fill="#e6f1fd"/><path d="m3 35v6h6v16h6v-17-5z" fill="#2d75bb"/><path d="m5 41h4v16h-4z" fill="#195c85"/><path d="m19 61h-10v-4h7a3.021 3.021 0 0 1 3 3.125z" fill="#394d5c"/><path d="m5 57h4v4h-4z" fill="#143441"/><path d="m46 61h9v-4h-6a3.021 3.021 0 0 0 -3 3.125z" fill="#143441"/><path d="m55 57h4v4h-4z" fill="#394d5c"/><path d="m27 35h10v22h-10z" fill="#143441"/><path d="m27 57h5v4h-5z" fill="#394d5c"/><path d="m32 57h5v4h-5z" fill="#5a6470"/><path d="m31 40h2v17h-2z" fill="#7d8d9c"/><path d="m37 32h4a0 0 0 0 1 0 0v2a2 2 0 0 1 -2 2 2 2 0 0 1 -2-2v-2a0 0 0 0 1 0 0z" fill="#ffd782"/><g fill="#394d5c"><path d="m23 31h4v4h-4z"/><path d="m15 19.92v2.16l-5.37-2.15.74-1.86z"/><path d="m52.62 19.82-3.62 2.87v-2.55l2.38-1.89z"/></g><path d="m53 32v-4a2 2 0 0 1 2-2 2 2 0 0 1 2 2v8h-10a2 2 0 0 1 -2-2 2 2 0 0 1 2-2z" fill="#ffd782"/><path d="m57 12h4v24h-4z" fill="#d0e5f7"/></g></svg>